<mxfile host="app.diagrams.net" modified="2022-02-13T13:54:09.627Z" agent="5.0 (Windows NT 10.0; Win64; x64) AppleWebKit/537.36 (KHTML, like Gecko) Chrome/98.0.4758.80 Safari/537.36 Edg/98.0.1108.50" etag="aRTRdH6auTqldX2tpmYD" version="16.4.3" type="github">
  <diagram id="G93JfH-K6TFxdWQqkhoN" name="Page-1">
    <mxGraphModel dx="539" dy="300" grid="1" gridSize="10" guides="1" tooltips="1" connect="1" arrows="1" fold="1" page="1" pageScale="1" pageWidth="850" pageHeight="1100" math="0" shadow="0">
      <root>
        <mxCell id="0" />
        <mxCell id="1" parent="0" />
        <mxCell id="0GJwcLVpLiTRm4O1bHKz-1" value="" style="rounded=0;whiteSpace=wrap;html=1;" vertex="1" parent="1">
          <mxGeometry x="210" y="80" width="690" height="240" as="geometry" />
        </mxCell>
        <mxCell id="0GJwcLVpLiTRm4O1bHKz-3" value="FrontEnd&lt;br&gt;" style="text;html=1;strokeColor=none;fillColor=none;align=center;verticalAlign=middle;whiteSpace=wrap;rounded=0;rotation=-90;" vertex="1" parent="1">
          <mxGeometry x="50" y="190" width="245" height="30" as="geometry" />
        </mxCell>
        <mxCell id="0GJwcLVpLiTRm4O1bHKz-11" value="" style="endArrow=none;dashed=1;html=1;dashPattern=1 3;strokeWidth=2;rounded=0;" edge="1" parent="1">
          <mxGeometry width="50" height="50" relative="1" as="geometry">
            <mxPoint x="380" y="160" as="sourcePoint" />
            <mxPoint x="380" y="160" as="targetPoint" />
            <Array as="points">
              <mxPoint x="230" y="160" />
              <mxPoint x="230" y="110" />
              <mxPoint x="380" y="110" />
            </Array>
          </mxGeometry>
        </mxCell>
        <mxCell id="0GJwcLVpLiTRm4O1bHKz-12" value="User" style="text;html=1;strokeColor=none;fillColor=none;align=center;verticalAlign=middle;whiteSpace=wrap;rounded=0;" vertex="1" parent="1">
          <mxGeometry x="270" y="120" width="60" height="30" as="geometry" />
        </mxCell>
        <mxCell id="0GJwcLVpLiTRm4O1bHKz-13" value="" style="endArrow=classic;html=1;rounded=0;entryX=0;entryY=0.5;entryDx=0;entryDy=0;" edge="1" parent="1" target="0GJwcLVpLiTRm4O1bHKz-14">
          <mxGeometry width="50" height="50" relative="1" as="geometry">
            <mxPoint x="380" y="133" as="sourcePoint" />
            <mxPoint x="520" y="110" as="targetPoint" />
            <Array as="points" />
          </mxGeometry>
        </mxCell>
        <mxCell id="0GJwcLVpLiTRm4O1bHKz-14" value="User Hash" style="rounded=0;whiteSpace=wrap;html=1;" vertex="1" parent="1">
          <mxGeometry x="470" y="105" width="40" height="55" as="geometry" />
        </mxCell>
        <mxCell id="0GJwcLVpLiTRm4O1bHKz-18" value="" style="endArrow=classic;html=1;rounded=0;entryX=0;entryY=0.5;entryDx=0;entryDy=0;startArrow=none;" edge="1" parent="1" source="0GJwcLVpLiTRm4O1bHKz-14" target="0GJwcLVpLiTRm4O1bHKz-19">
          <mxGeometry width="50" height="50" relative="1" as="geometry">
            <mxPoint x="577.5" y="131.25" as="sourcePoint" />
            <mxPoint x="630" y="170" as="targetPoint" />
          </mxGeometry>
        </mxCell>
        <mxCell id="0GJwcLVpLiTRm4O1bHKz-24" value="" style="edgeStyle=orthogonalEdgeStyle;rounded=0;orthogonalLoop=1;jettySize=auto;html=1;" edge="1" parent="1" source="0GJwcLVpLiTRm4O1bHKz-19" target="0GJwcLVpLiTRm4O1bHKz-21">
          <mxGeometry relative="1" as="geometry" />
        </mxCell>
        <mxCell id="0GJwcLVpLiTRm4O1bHKz-17" value="User details" style="text;html=1;strokeColor=none;fillColor=none;align=center;verticalAlign=middle;whiteSpace=wrap;rounded=0;" vertex="1" parent="1">
          <mxGeometry x="388" y="90" width="75" height="30" as="geometry" />
        </mxCell>
        <mxCell id="0GJwcLVpLiTRm4O1bHKz-19" value="User Database" style="rounded=0;whiteSpace=wrap;html=1;" vertex="1" parent="1">
          <mxGeometry x="590" y="105" width="80" height="55" as="geometry" />
        </mxCell>
        <mxCell id="0GJwcLVpLiTRm4O1bHKz-21" value="Permissions" style="rounded=0;whiteSpace=wrap;html=1;" vertex="1" parent="1">
          <mxGeometry x="770" y="112.5" width="100" height="40" as="geometry" />
        </mxCell>
        <mxCell id="0GJwcLVpLiTRm4O1bHKz-23" value="" style="endArrow=none;html=1;rounded=0;entryX=0;entryY=0.5;entryDx=0;entryDy=0;exitX=1;exitY=0.5;exitDx=0;exitDy=0;" edge="1" parent="1" source="0GJwcLVpLiTRm4O1bHKz-14">
          <mxGeometry width="50" height="50" relative="1" as="geometry">
            <mxPoint x="530" y="132.5" as="sourcePoint" />
            <mxPoint x="512.5" y="131.25" as="targetPoint" />
          </mxGeometry>
        </mxCell>
        <mxCell id="0GJwcLVpLiTRm4O1bHKz-26" value="Valid Nonce" style="text;html=1;strokeColor=none;fillColor=none;align=center;verticalAlign=middle;whiteSpace=wrap;rounded=0;" vertex="1" parent="1">
          <mxGeometry x="690" y="90" width="60" height="30" as="geometry" />
        </mxCell>
        <mxCell id="0GJwcLVpLiTRm4O1bHKz-28" value="Good&lt;br&gt;Hash" style="text;html=1;strokeColor=none;fillColor=none;align=center;verticalAlign=middle;whiteSpace=wrap;rounded=0;" vertex="1" parent="1">
          <mxGeometry x="510" y="90" width="75" height="30" as="geometry" />
        </mxCell>
        <mxCell id="0GJwcLVpLiTRm4O1bHKz-29" value="" style="endArrow=classic;html=1;rounded=0;exitX=0.5;exitY=1;exitDx=0;exitDy=0;entryX=0.5;entryY=0;entryDx=0;entryDy=0;" edge="1" parent="1" source="0GJwcLVpLiTRm4O1bHKz-14" target="0GJwcLVpLiTRm4O1bHKz-31">
          <mxGeometry width="50" height="50" relative="1" as="geometry">
            <mxPoint x="480" y="220" as="sourcePoint" />
            <mxPoint x="530" y="170" as="targetPoint" />
          </mxGeometry>
        </mxCell>
        <mxCell id="0GJwcLVpLiTRm4O1bHKz-31" value="Registration" style="rounded=0;whiteSpace=wrap;html=1;" vertex="1" parent="1">
          <mxGeometry x="441.5" y="230" width="97" height="20" as="geometry" />
        </mxCell>
        <mxCell id="0GJwcLVpLiTRm4O1bHKz-32" value="Bad Hash&lt;br&gt;" style="text;html=1;strokeColor=none;fillColor=none;align=center;verticalAlign=middle;whiteSpace=wrap;rounded=0;rotation=90;" vertex="1" parent="1">
          <mxGeometry x="463" y="180" width="75" height="30" as="geometry" />
        </mxCell>
        <mxCell id="0GJwcLVpLiTRm4O1bHKz-33" value="" style="endArrow=classic;html=1;rounded=0;exitX=0.5;exitY=1;exitDx=0;exitDy=0;entryX=0;entryY=0.75;entryDx=0;entryDy=0;" edge="1" parent="1" source="0GJwcLVpLiTRm4O1bHKz-31" target="0GJwcLVpLiTRm4O1bHKz-14">
          <mxGeometry width="50" height="50" relative="1" as="geometry">
            <mxPoint x="490" y="300" as="sourcePoint" />
            <mxPoint x="540" y="250" as="targetPoint" />
            <Array as="points">
              <mxPoint x="490" y="280" />
              <mxPoint x="410" y="280" />
              <mxPoint x="410" y="146" />
            </Array>
          </mxGeometry>
        </mxCell>
        <mxCell id="0GJwcLVpLiTRm4O1bHKz-34" value="User Details" style="text;html=1;strokeColor=none;fillColor=none;align=center;verticalAlign=middle;whiteSpace=wrap;rounded=0;" vertex="1" parent="1">
          <mxGeometry x="410" y="290" width="85" height="10" as="geometry" />
        </mxCell>
        <mxCell id="0GJwcLVpLiTRm4O1bHKz-35" value="" style="rounded=0;whiteSpace=wrap;html=1;" vertex="1" parent="1">
          <mxGeometry x="210" y="330" width="690" height="240" as="geometry" />
        </mxCell>
        <mxCell id="0GJwcLVpLiTRm4O1bHKz-36" value="" style="rounded=0;whiteSpace=wrap;html=1;" vertex="1" parent="1">
          <mxGeometry x="210" y="580" width="690" height="240" as="geometry" />
        </mxCell>
        <mxCell id="0GJwcLVpLiTRm4O1bHKz-37" value="Permissions Module&lt;br&gt;" style="text;html=1;strokeColor=none;fillColor=none;align=center;verticalAlign=middle;whiteSpace=wrap;rounded=0;rotation=-90;" vertex="1" parent="1">
          <mxGeometry x="60" y="435" width="245" height="30" as="geometry" />
        </mxCell>
        <mxCell id="0GJwcLVpLiTRm4O1bHKz-38" value="Recommendations Engine" style="text;html=1;strokeColor=none;fillColor=none;align=center;verticalAlign=middle;whiteSpace=wrap;rounded=0;rotation=-90;" vertex="1" parent="1">
          <mxGeometry x="60" y="685" width="245" height="30" as="geometry" />
        </mxCell>
        <mxCell id="0GJwcLVpLiTRm4O1bHKz-39" value="Location API" style="rounded=0;whiteSpace=wrap;html=1;" vertex="1" parent="1">
          <mxGeometry x="780" y="350" width="80" height="30" as="geometry" />
        </mxCell>
        <mxCell id="0GJwcLVpLiTRm4O1bHKz-40" value="" style="endArrow=classic;html=1;rounded=0;exitX=0.5;exitY=1;exitDx=0;exitDy=0;" edge="1" parent="1" source="0GJwcLVpLiTRm4O1bHKz-21" target="0GJwcLVpLiTRm4O1bHKz-39">
          <mxGeometry width="50" height="50" relative="1" as="geometry">
            <mxPoint x="810" y="200" as="sourcePoint" />
            <mxPoint x="860" y="150" as="targetPoint" />
          </mxGeometry>
        </mxCell>
        <mxCell id="0GJwcLVpLiTRm4O1bHKz-41" value="" style="endArrow=classic;html=1;rounded=0;exitX=0;exitY=0.5;exitDx=0;exitDy=0;entryX=1;entryY=0.5;entryDx=0;entryDy=0;" edge="1" parent="1" source="0GJwcLVpLiTRm4O1bHKz-39" target="0GJwcLVpLiTRm4O1bHKz-43">
          <mxGeometry width="50" height="50" relative="1" as="geometry">
            <mxPoint x="710" y="420" as="sourcePoint" />
            <mxPoint x="760" y="370" as="targetPoint" />
            <Array as="points" />
          </mxGeometry>
        </mxCell>
        <mxCell id="0GJwcLVpLiTRm4O1bHKz-43" value="WiFI&lt;span style=&quot;white-space: pre&quot;&gt;	&lt;/span&gt;&amp;nbsp;Permission&lt;br&gt;" style="rounded=0;whiteSpace=wrap;html=1;" vertex="1" parent="1">
          <mxGeometry x="560" y="350" width="110" height="30" as="geometry" />
        </mxCell>
        <mxCell id="0GJwcLVpLiTRm4O1bHKz-44" value="GPS Permission" style="rounded=0;whiteSpace=wrap;html=1;" vertex="1" parent="1">
          <mxGeometry x="560" y="430" width="110" height="30" as="geometry" />
        </mxCell>
        <mxCell id="0GJwcLVpLiTRm4O1bHKz-45" value="Bluetooth Permission" style="rounded=0;whiteSpace=wrap;html=1;" vertex="1" parent="1">
          <mxGeometry x="560" y="390" width="110" height="30" as="geometry" />
        </mxCell>
        <mxCell id="0GJwcLVpLiTRm4O1bHKz-47" value="" style="endArrow=classic;html=1;rounded=0;exitX=0.5;exitY=1;exitDx=0;exitDy=0;entryX=1;entryY=0.5;entryDx=0;entryDy=0;" edge="1" parent="1" source="0GJwcLVpLiTRm4O1bHKz-39">
          <mxGeometry width="50" height="50" relative="1" as="geometry">
            <mxPoint x="780" y="404.47" as="sourcePoint" />
            <mxPoint x="670" y="404.47" as="targetPoint" />
            <Array as="points">
              <mxPoint x="820" y="404" />
            </Array>
          </mxGeometry>
        </mxCell>
        <mxCell id="0GJwcLVpLiTRm4O1bHKz-49" value="" style="endArrow=classic;html=1;rounded=0;exitX=0.861;exitY=1.025;exitDx=0;exitDy=0;entryX=1;entryY=0.5;entryDx=0;entryDy=0;exitPerimeter=0;" edge="1" parent="1" source="0GJwcLVpLiTRm4O1bHKz-39">
          <mxGeometry width="50" height="50" relative="1" as="geometry">
            <mxPoint x="820" y="420" as="sourcePoint" />
            <mxPoint x="670" y="444.47" as="targetPoint" />
            <Array as="points">
              <mxPoint x="850" y="444" />
            </Array>
          </mxGeometry>
        </mxCell>
        <mxCell id="0GJwcLVpLiTRm4O1bHKz-52" value="WiFI Database" style="rounded=0;whiteSpace=wrap;html=1;" vertex="1" parent="1">
          <mxGeometry x="380" y="350" width="110" height="30" as="geometry" />
        </mxCell>
        <mxCell id="0GJwcLVpLiTRm4O1bHKz-53" value="GPS Database" style="rounded=0;whiteSpace=wrap;html=1;" vertex="1" parent="1">
          <mxGeometry x="380" y="430" width="110" height="30" as="geometry" />
        </mxCell>
        <mxCell id="0GJwcLVpLiTRm4O1bHKz-54" value="Bluetooth Database" style="rounded=0;whiteSpace=wrap;html=1;" vertex="1" parent="1">
          <mxGeometry x="380" y="390" width="110" height="30" as="geometry" />
        </mxCell>
        <mxCell id="0GJwcLVpLiTRm4O1bHKz-62" value="" style="endArrow=classic;html=1;rounded=0;exitX=0;exitY=0.5;exitDx=0;exitDy=0;entryX=1;entryY=0.5;entryDx=0;entryDy=0;" edge="1" parent="1" source="0GJwcLVpLiTRm4O1bHKz-43" target="0GJwcLVpLiTRm4O1bHKz-52">
          <mxGeometry width="50" height="50" relative="1" as="geometry">
            <mxPoint x="540" y="365.26" as="sourcePoint" />
            <mxPoint x="430" y="365" as="targetPoint" />
            <Array as="points" />
          </mxGeometry>
        </mxCell>
        <mxCell id="0GJwcLVpLiTRm4O1bHKz-63" value="" style="endArrow=classic;html=1;rounded=0;exitX=0;exitY=0.5;exitDx=0;exitDy=0;entryX=1;entryY=0.5;entryDx=0;entryDy=0;" edge="1" parent="1" source="0GJwcLVpLiTRm4O1bHKz-45" target="0GJwcLVpLiTRm4O1bHKz-54">
          <mxGeometry width="50" height="50" relative="1" as="geometry">
            <mxPoint x="580" y="380.26" as="sourcePoint" />
            <mxPoint x="430" y="404.73" as="targetPoint" />
            <Array as="points" />
          </mxGeometry>
        </mxCell>
        <mxCell id="0GJwcLVpLiTRm4O1bHKz-64" value="" style="endArrow=classic;html=1;rounded=0;exitX=0;exitY=0.5;exitDx=0;exitDy=0;entryX=1;entryY=0.5;entryDx=0;entryDy=0;" edge="1" parent="1" source="0GJwcLVpLiTRm4O1bHKz-44" target="0GJwcLVpLiTRm4O1bHKz-53">
          <mxGeometry width="50" height="50" relative="1" as="geometry">
            <mxPoint x="608.8799999999999" y="381.01" as="sourcePoint" />
            <mxPoint x="430" y="444.73" as="targetPoint" />
            <Array as="points">
              <mxPoint x="490" y="445" />
            </Array>
          </mxGeometry>
        </mxCell>
        <mxCell id="0GJwcLVpLiTRm4O1bHKz-66" value="Log List&lt;span style=&quot;color: rgba(0 , 0 , 0 , 0) ; font-family: monospace ; font-size: 0px&quot;&gt;%3CmxGraphModel%3E%3Croot%3E%3CmxCell%20id%3D%220%22%2F%3E%3CmxCell%20id%3D%221%22%20parent%3D%220%22%2F%3E%3CmxCell%20id%3D%222%22%20value%3D%22%22%20style%3D%22endArrow%3Dclassic%3Bhtml%3D1%3Brounded%3D0%3BexitX%3D0%3BexitY%3D0.5%3BexitDx%3D0%3BexitDy%3D0%3BentryX%3D1%3BentryY%3D0.5%3BentryDx%3D0%3BentryDy%3D0%3B%22%20edge%3D%221%22%20parent%3D%221%22%3E%3CmxGeometry%20width%3D%2250%22%20height%3D%2250%22%20relative%3D%221%22%20as%3D%22geometry%22%3E%3CmxPoint%20x%3D%22780%22%20y%3D%22365%22%20as%3D%22sourcePoint%22%2F%3E%3CmxPoint%20x%3D%22670%22%20y%3D%22365%22%20as%3D%22targetPoint%22%2F%3E%3CArray%20as%3D%22points%22%2F%3E%3C%2FmxGeometry%3E%3C%2FmxCell%3E%3CmxCell%20id%3D%223%22%20value%3D%22%22%20style%3D%22endArrow%3Dclassic%3Bhtml%3D1%3Brounded%3D0%3BexitX%3D0.5%3BexitY%3D1%3BexitDx%3D0%3BexitDy%3D0%3BentryX%3D1%3BentryY%3D0.5%3BentryDx%3D0%3BentryDy%3D0%3B%22%20edge%3D%221%22%20parent%3D%221%22%3E%3CmxGeometry%20width%3D%2250%22%20height%3D%2250%22%20relative%3D%221%22%20as%3D%22geometry%22%3E%3CmxPoint%20x%3D%22820%22%20y%3D%22380%22%20as%3D%22sourcePoint%22%2F%3E%3CmxPoint%20x%3D%22670%22%20y%3D%22404.47%22%20as%3D%22targetPoint%22%2F%3E%3CArray%20as%3D%22points%22%3E%3CmxPoint%20x%3D%22820%22%20y%3D%22404%22%2F%3E%3C%2FArray%3E%3C%2FmxGeometry%3E%3C%2FmxCell%3E%3CmxCell%20id%3D%224%22%20value%3D%22%22%20style%3D%22endArrow%3Dclassic%3Bhtml%3D1%3Brounded%3D0%3BexitX%3D0.861%3BexitY%3D1.025%3BexitDx%3D0%3BexitDy%3D0%3BentryX%3D1%3BentryY%3D0.5%3BentryDx%3D0%3BentryDy%3D0%3BexitPerimeter%3D0%3B%22%20edge%3D%221%22%20parent%3D%221%22%3E%3CmxGeometry%20width%3D%2250%22%20height%3D%2250%22%20relative%3D%221%22%20as%3D%22geometry%22%3E%3CmxPoint%20x%3D%22848.8799999999999%22%20y%3D%22380.75%22%20as%3D%22sourcePoint%22%2F%3E%3CmxPoint%20x%3D%22670%22%20y%3D%22444.47%22%20as%3D%22targetPoint%22%2F%3E%3CArray%20as%3D%22points%22%3E%3CmxPoint%20x%3D%22850%22%20y%3D%22444%22%2F%3E%3C%2FArray%3E%3C%2FmxGeometry%3E%3C%2FmxCell%3E%3C%2Froot%3E%3C%2FmxGraphModel%3E&lt;/span&gt;" style="text;html=1;strokeColor=none;fillColor=none;align=center;verticalAlign=middle;whiteSpace=wrap;rounded=0;" vertex="1" parent="1">
          <mxGeometry x="495" y="340" width="60" height="30" as="geometry" />
        </mxCell>
        <mxCell id="0GJwcLVpLiTRm4O1bHKz-67" value="Log List&lt;span style=&quot;color: rgba(0 , 0 , 0 , 0) ; font-family: monospace ; font-size: 0px&quot;&gt;%3CmxGraphModel%3E%3Croot%3E%3CmxCell%20id%3D%220%22%2F%3E%3CmxCell%20id%3D%221%22%20parent%3D%220%22%2F%3E%3CmxCell%20id%3D%222%22%20value%3D%22%22%20style%3D%22endArrow%3Dclassic%3Bhtml%3D1%3Brounded%3D0%3BexitX%3D0%3BexitY%3D0.5%3BexitDx%3D0%3BexitDy%3D0%3BentryX%3D1%3BentryY%3D0.5%3BentryDx%3D0%3BentryDy%3D0%3B%22%20edge%3D%221%22%20parent%3D%221%22%3E%3CmxGeometry%20width%3D%2250%22%20height%3D%2250%22%20relative%3D%221%22%20as%3D%22geometry%22%3E%3CmxPoint%20x%3D%22780%22%20y%3D%22365%22%20as%3D%22sourcePoint%22%2F%3E%3CmxPoint%20x%3D%22670%22%20y%3D%22365%22%20as%3D%22targetPoint%22%2F%3E%3CArray%20as%3D%22points%22%2F%3E%3C%2FmxGeometry%3E%3C%2FmxCell%3E%3CmxCell%20id%3D%223%22%20value%3D%22%22%20style%3D%22endArrow%3Dclassic%3Bhtml%3D1%3Brounded%3D0%3BexitX%3D0.5%3BexitY%3D1%3BexitDx%3D0%3BexitDy%3D0%3BentryX%3D1%3BentryY%3D0.5%3BentryDx%3D0%3BentryDy%3D0%3B%22%20edge%3D%221%22%20parent%3D%221%22%3E%3CmxGeometry%20width%3D%2250%22%20height%3D%2250%22%20relative%3D%221%22%20as%3D%22geometry%22%3E%3CmxPoint%20x%3D%22820%22%20y%3D%22380%22%20as%3D%22sourcePoint%22%2F%3E%3CmxPoint%20x%3D%22670%22%20y%3D%22404.47%22%20as%3D%22targetPoint%22%2F%3E%3CArray%20as%3D%22points%22%3E%3CmxPoint%20x%3D%22820%22%20y%3D%22404%22%2F%3E%3C%2FArray%3E%3C%2FmxGeometry%3E%3C%2FmxCell%3E%3CmxCell%20id%3D%224%22%20value%3D%22%22%20style%3D%22endArrow%3Dclassic%3Bhtml%3D1%3Brounded%3D0%3BexitX%3D0.861%3BexitY%3D1.025%3BexitDx%3D0%3BexitDy%3D0%3BentryX%3D1%3BentryY%3D0.5%3BentryDx%3D0%3BentryDy%3D0%3BexitPerimeter%3D0%3B%22%20edge%3D%221%22%20parent%3D%221%22%3E%3CmxGeometry%20width%3D%2250%22%20height%3D%2250%22%20relative%3D%221%22%20as%3D%22geometry%22%3E%3CmxPoint%20x%3D%22848.8799999999999%22%20y%3D%22380.75%22%20as%3D%22sourcePoint%22%2F%3E%3CmxPoint%20x%3D%22670%22%20y%3D%22444.47%22%20as%3D%22targetPoint%22%2F%3E%3CArray%20as%3D%22points%22%3E%3CmxPoint%20x%3D%22850%22%20y%3D%22444%22%2F%3E%3C%2FArray%3E%3C%2FmxGeometry%3E%3C%2FmxCell%3E%3C%2Froot%3E%3C%2FmxGraphModel%3E&lt;/span&gt;" style="text;html=1;strokeColor=none;fillColor=none;align=center;verticalAlign=middle;whiteSpace=wrap;rounded=0;" vertex="1" parent="1">
          <mxGeometry x="495" y="380" width="60" height="30" as="geometry" />
        </mxCell>
        <mxCell id="0GJwcLVpLiTRm4O1bHKz-68" value="Log List&lt;span style=&quot;color: rgba(0 , 0 , 0 , 0) ; font-family: monospace ; font-size: 0px&quot;&gt;%3CmxGraphModel%3E%3Croot%3E%3CmxCell%20id%3D%220%22%2F%3E%3CmxCell%20id%3D%221%22%20parent%3D%220%22%2F%3E%3CmxCell%20id%3D%222%22%20value%3D%22%22%20style%3D%22endArrow%3Dclassic%3Bhtml%3D1%3Brounded%3D0%3BexitX%3D0%3BexitY%3D0.5%3BexitDx%3D0%3BexitDy%3D0%3BentryX%3D1%3BentryY%3D0.5%3BentryDx%3D0%3BentryDy%3D0%3B%22%20edge%3D%221%22%20parent%3D%221%22%3E%3CmxGeometry%20width%3D%2250%22%20height%3D%2250%22%20relative%3D%221%22%20as%3D%22geometry%22%3E%3CmxPoint%20x%3D%22780%22%20y%3D%22365%22%20as%3D%22sourcePoint%22%2F%3E%3CmxPoint%20x%3D%22670%22%20y%3D%22365%22%20as%3D%22targetPoint%22%2F%3E%3CArray%20as%3D%22points%22%2F%3E%3C%2FmxGeometry%3E%3C%2FmxCell%3E%3CmxCell%20id%3D%223%22%20value%3D%22%22%20style%3D%22endArrow%3Dclassic%3Bhtml%3D1%3Brounded%3D0%3BexitX%3D0.5%3BexitY%3D1%3BexitDx%3D0%3BexitDy%3D0%3BentryX%3D1%3BentryY%3D0.5%3BentryDx%3D0%3BentryDy%3D0%3B%22%20edge%3D%221%22%20parent%3D%221%22%3E%3CmxGeometry%20width%3D%2250%22%20height%3D%2250%22%20relative%3D%221%22%20as%3D%22geometry%22%3E%3CmxPoint%20x%3D%22820%22%20y%3D%22380%22%20as%3D%22sourcePoint%22%2F%3E%3CmxPoint%20x%3D%22670%22%20y%3D%22404.47%22%20as%3D%22targetPoint%22%2F%3E%3CArray%20as%3D%22points%22%3E%3CmxPoint%20x%3D%22820%22%20y%3D%22404%22%2F%3E%3C%2FArray%3E%3C%2FmxGeometry%3E%3C%2FmxCell%3E%3CmxCell%20id%3D%224%22%20value%3D%22%22%20style%3D%22endArrow%3Dclassic%3Bhtml%3D1%3Brounded%3D0%3BexitX%3D0.861%3BexitY%3D1.025%3BexitDx%3D0%3BexitDy%3D0%3BentryX%3D1%3BentryY%3D0.5%3BentryDx%3D0%3BentryDy%3D0%3BexitPerimeter%3D0%3B%22%20edge%3D%221%22%20parent%3D%221%22%3E%3CmxGeometry%20width%3D%2250%22%20height%3D%2250%22%20relative%3D%221%22%20as%3D%22geometry%22%3E%3CmxPoint%20x%3D%22848.8799999999999%22%20y%3D%22380.75%22%20as%3D%22sourcePoint%22%2F%3E%3CmxPoint%20x%3D%22670%22%20y%3D%22444.47%22%20as%3D%22targetPoint%22%2F%3E%3CArray%20as%3D%22points%22%3E%3CmxPoint%20x%3D%22850%22%20y%3D%22444%22%2F%3E%3C%2FArray%3E%3C%2FmxGeometry%3E%3C%2FmxCell%3E%3C%2Froot%3E%3C%2FmxGraphModel%3E&lt;/span&gt;" style="text;html=1;strokeColor=none;fillColor=none;align=center;verticalAlign=middle;whiteSpace=wrap;rounded=0;" vertex="1" parent="1">
          <mxGeometry x="495" y="420" width="60" height="30" as="geometry" />
        </mxCell>
        <mxCell id="0GJwcLVpLiTRm4O1bHKz-69" value="" style="endArrow=classic;html=1;rounded=0;exitX=0;exitY=0.5;exitDx=0;exitDy=0;entryX=0.199;entryY=0.011;entryDx=0;entryDy=0;entryPerimeter=0;" edge="1" parent="1" source="0GJwcLVpLiTRm4O1bHKz-52" target="0GJwcLVpLiTRm4O1bHKz-70">
          <mxGeometry width="50" height="50" relative="1" as="geometry">
            <mxPoint x="290" y="470" as="sourcePoint" />
            <mxPoint x="340" y="420" as="targetPoint" />
            <Array as="points">
              <mxPoint x="285" y="365" />
            </Array>
          </mxGeometry>
        </mxCell>
        <mxCell id="0GJwcLVpLiTRm4O1bHKz-70" value="" style="rounded=0;whiteSpace=wrap;html=1;" vertex="1" parent="1">
          <mxGeometry x="260" y="600" width="120" height="40" as="geometry" />
        </mxCell>
        <mxCell id="0GJwcLVpLiTRm4O1bHKz-71" value="" style="endArrow=classic;html=1;rounded=0;exitX=0;exitY=0.75;exitDx=0;exitDy=0;entryX=0.419;entryY=-0.007;entryDx=0;entryDy=0;entryPerimeter=0;" edge="1" parent="1" source="0GJwcLVpLiTRm4O1bHKz-54" target="0GJwcLVpLiTRm4O1bHKz-70">
          <mxGeometry width="50" height="50" relative="1" as="geometry">
            <mxPoint x="390" y="375" as="sourcePoint" />
            <mxPoint x="310" y="590" as="targetPoint" />
            <Array as="points">
              <mxPoint x="310" y="413" />
            </Array>
          </mxGeometry>
        </mxCell>
        <mxCell id="0GJwcLVpLiTRm4O1bHKz-72" value="" style="endArrow=classic;html=1;rounded=0;exitX=0;exitY=0.5;exitDx=0;exitDy=0;" edge="1" parent="1" source="0GJwcLVpLiTRm4O1bHKz-53">
          <mxGeometry width="50" height="50" relative="1" as="geometry">
            <mxPoint x="390" y="422.5000000000001" as="sourcePoint" />
            <mxPoint x="340" y="600" as="targetPoint" />
            <Array as="points">
              <mxPoint x="340" y="445" />
            </Array>
          </mxGeometry>
        </mxCell>
        <mxCell id="0GJwcLVpLiTRm4O1bHKz-73" value="Location Collaboration" style="text;html=1;strokeColor=none;fillColor=none;align=center;verticalAlign=middle;whiteSpace=wrap;rounded=0;" vertex="1" parent="1">
          <mxGeometry x="290" y="605" width="60" height="30" as="geometry" />
        </mxCell>
        <mxCell id="0GJwcLVpLiTRm4O1bHKz-74" value="Collaborative Filtering (Behaviour &amp;amp; Preferences)" style="rounded=0;whiteSpace=wrap;html=1;" vertex="1" parent="1">
          <mxGeometry x="480" y="595" width="120" height="50" as="geometry" />
        </mxCell>
        <mxCell id="0GJwcLVpLiTRm4O1bHKz-75" value="" style="endArrow=classic;html=1;rounded=0;exitX=1;exitY=0.5;exitDx=0;exitDy=0;" edge="1" parent="1" source="0GJwcLVpLiTRm4O1bHKz-70" target="0GJwcLVpLiTRm4O1bHKz-74">
          <mxGeometry width="50" height="50" relative="1" as="geometry">
            <mxPoint x="380" y="660" as="sourcePoint" />
            <mxPoint x="430" y="610" as="targetPoint" />
          </mxGeometry>
        </mxCell>
        <mxCell id="0GJwcLVpLiTRm4O1bHKz-76" value="Location Coordinates" style="text;html=1;strokeColor=none;fillColor=none;align=center;verticalAlign=middle;whiteSpace=wrap;rounded=0;" vertex="1" parent="1">
          <mxGeometry x="388" y="590" width="82" height="30" as="geometry" />
        </mxCell>
        <mxCell id="0GJwcLVpLiTRm4O1bHKz-84" value="" style="endArrow=classic;html=1;rounded=0;entryX=0.014;entryY=0.4;entryDx=0;entryDy=0;entryPerimeter=0;exitX=1.003;exitY=0.407;exitDx=0;exitDy=0;exitPerimeter=0;" edge="1" parent="1" source="0GJwcLVpLiTRm4O1bHKz-74" target="0GJwcLVpLiTRm4O1bHKz-86">
          <mxGeometry width="50" height="50" relative="1" as="geometry">
            <mxPoint x="600" y="670" as="sourcePoint" />
            <mxPoint x="710" y="620" as="targetPoint" />
          </mxGeometry>
        </mxCell>
        <mxCell id="0GJwcLVpLiTRm4O1bHKz-85" value="&lt;font style=&quot;font-size: 8px;&quot;&gt;Recommendations&lt;br style=&quot;font-size: 8px;&quot;&gt;List&lt;/font&gt;" style="text;html=1;strokeColor=none;fillColor=none;align=center;verticalAlign=middle;whiteSpace=wrap;rounded=0;strokeWidth=0;fontSize=8;" vertex="1" parent="1">
          <mxGeometry x="610" y="620" width="80" height="20" as="geometry" />
        </mxCell>
        <mxCell id="0GJwcLVpLiTRm4O1bHKz-86" value="&lt;font size=&quot;1&quot;&gt;Landing Page&lt;/font&gt;" style="rounded=0;whiteSpace=wrap;html=1;fontSize=20;strokeWidth=2;dashed=1;" vertex="1" parent="1">
          <mxGeometry x="710" y="597.5" width="120" height="45" as="geometry" />
        </mxCell>
        <mxCell id="0GJwcLVpLiTRm4O1bHKz-87" value="" style="endArrow=classic;html=1;rounded=0;fontSize=12;" edge="1" parent="1" source="0GJwcLVpLiTRm4O1bHKz-36">
          <mxGeometry width="50" height="50" relative="1" as="geometry">
            <mxPoint x="760" y="690" as="sourcePoint" />
            <mxPoint x="810" y="640" as="targetPoint" />
            <Array as="points">
              <mxPoint x="790" y="680" />
            </Array>
          </mxGeometry>
        </mxCell>
        <mxCell id="0GJwcLVpLiTRm4O1bHKz-88" value="" style="rounded=0;whiteSpace=wrap;html=1;fontSize=12;strokeWidth=1;" vertex="1" parent="1">
          <mxGeometry x="710" y="700" width="120" height="60" as="geometry" />
        </mxCell>
      </root>
    </mxGraphModel>
  </diagram>
</mxfile>
